<?xml version="1.0" encoding="UTF-8"?><svg id="a" xmlns="http://www.w3.org/2000/svg" viewBox="0 0 1080 1080"><defs><style>.cls-1{fill:#a7177b;}.cls-2{fill:#fab72f;}.cls-3{fill:#3a3c44;}.cls-4{fill:#dd0452;}</style></defs><polygon class="cls-3" points="505.92 685.62 505.92 708.81 534.31 708.81 534.31 712.69 505.92 712.69 505.92 738.3 502.2 738.3 502.2 681.74 537.54 681.74 537.54 685.62 505.92 685.62"/><path class="cls-3" d="M579.82,739.19c-12.04,0-20.57-8.56-20.57-24.41v-33.04h3.72v32.64c0,13.33,6.38,21.01,17,21.01s16.69-6.96,16.69-20.61v-33.04h3.74v32.56c0,16.24-8.39,24.88-20.58,24.88"/><polygon class="cls-3" points="667.93 738.3 632.59 688.04 632.59 738.3 629 738.3 629 681.74 632.5 681.74 667.13 730.95 667.13 681.74 670.72 681.74 670.72 738.3 667.93 738.3"/><path class="cls-3" d="M718.14,738.3h-16.7v-56.56h16.7c15.78,0,26.66,12.2,26.66,28.12v.16c0,15.92-10.88,28.28-26.66,28.28m22.8-28.28c0-13.41-8.82-24.4-22.8-24.4h-12.98v48.81h12.98c13.97,0,22.8-10.75,22.8-24.24v-.16h0Z"/><path class="cls-3" d="M809.48,738.3l-6.37-15.83h-29.6l-6.39,15.83h-3.88l23.37-56.96h3.59l23.38,56.96h-4.1Zm-21.14-52.36l-13.26,32.72h26.45l-13.19-32.72h0Z"/><path class="cls-3" d="M855.43,739.27c-14.35,0-24.96-12.84-24.96-29.09v-.16c0-15.99,10.61-29.24,25.08-29.24,8.97,0,14.35,3.71,19.52,9.05l-2.66,3.07c-4.37-4.77-9.39-8.32-16.91-8.32-12.05,0-21.15,11.07-21.15,25.29v.16c0,14.3,9.25,25.46,21.2,25.46,7.25,0,12.2-3.15,17.28-8.81l2.52,2.74c-5.31,5.9-11.04,9.86-19.91,9.86"/><rect class="cls-3" x="902.13" y="681.74" width="3.73" height="56.56"/><path class="cls-3" d="M955.9,739.27c-15.18,0-25.17-13.65-25.17-29.09v-.16c0-15.43,10.11-29.25,25.32-29.25s25.16,13.66,25.16,29.09c.05,.05,.05,.11,0,.16,0,15.43-10.11,29.25-25.31,29.25m21.44-29.25c0-13.98-9.04-25.45-21.44-25.45s-21.28,11.31-21.28,25.29v.16c0,13.98,9.04,25.46,21.44,25.46s21.29-11.31,21.29-25.29v-.16h0Zm-22.5-33.54l6.3-10.75,4.36,2.43-7.67,8.32h-2.99Z"/><polygon class="cls-3" points="1046.56 738.3 1011.22 688.04 1011.22 738.3 1007.65 738.3 1007.65 681.74 1011.15 681.74 1045.78 730.95 1045.78 681.74 1049.36 681.74 1049.36 738.3 1046.56 738.3"/><path class="cls-3" d="M688.66,443.39c32.95,0,51.67,22.41,51.67,55.47v138.86s-5.9,2.57-17.33,2.57c-12.15,0-17.34-2.57-17.34-2.57v-132.26c0-20.57-9.01-32.33-30.17-32.33-14.21,0-28.06,8.09-37.08,23.52v141.06s-5.89,2.57-16.99,2.57c-12.13,0-17.33-2.57-17.33-2.57v-132.26c0-20.57-9.02-32.33-30.17-32.33-14.2,0-28.09,8.82-37.08,23.14v141.44s-5.9,2.57-16.99,2.57c-12.14,0-17.34-2.57-17.34-2.57v-191.39s5.2-2.57,17.34-2.57c11.1,0,16.99,2.57,16.99,2.57v19.82c12.13-14.69,29.8-22.78,49.92-22.78s35.71,7.72,45.07,26.81c14.22-18,32.92-26.81,56.84-26.81"/><path class="cls-3" d="M96.52,439.71c33.98,0,48.89,9.92,48.89,9.92,0,9.55-3.13,20.21-9.03,26.09,0,0-16.64-5.88-36.39-5.88-23.58,0-35.36,9.18-35.36,26.45s21.84,22.41,43.68,30.12c22.52,7.71,46.09,19.11,46.09,55.11s-21.84,58.78-65.86,58.78c-36.4,0-57.9-13.22-57.9-13.22,0-10.65,3.12-20.94,9.37-27.19,0,0,22.52,9.19,46.78,9.19,21.15,0,33.29-8.45,33.29-26.45,0-20.2-19.07-24.61-39.52-30.86-23.58-7.35-49.22-18-49.22-54.37s21.14-57.68,65.17-57.68"/><path class="cls-3" d="M837.78,439.7c50.26,0,66.21,23.88,66.21,71.27v123.07s-3.8,2.57-13.51,2.57c-8.68,0-13.87-2.57-13.87-2.57l-5.21-23.51c-9.01,19.47-28.09,29.76-54.43,29.76-32.59,0-53.73-20.58-53.73-61.35s23.23-57.68,66.56-57.68c15.61,0,30.51,1.11,39.52,2.21v-15.06c0-24.61-9.01-37.84-35.7-37.84-24.28,0-46.46,9.19-46.46,9.19-.34-.37-4.51-3.31-7.97-11.03-3.11-7.71-2.07-15.06-2.07-15.42,0,0,25.99-13.6,60.66-13.6m-3.46,106.54c-23.23,0-35.36,9.93-35.36,32.7s11.44,33.06,30.16,33.06c27.38,0,40.21-24.61,40.21-50.7v-12.86c-7.98-.73-21.83-2.21-35.01-2.21"/><path class="cls-3" d="M989.79,439.71c33.97,0,48.88,9.92,48.88,9.92,0,9.56-3.12,20.21-9.02,26.09,0,0-16.63-5.88-36.4-5.88-23.57,0-35.36,9.18-35.36,26.44s21.85,22.41,43.69,30.13c22.52,7.71,46.1,19.1,46.1,55.11s-21.84,58.78-65.87,58.78c-36.39,0-57.89-13.22-57.89-13.22,0-10.66,3.12-20.94,9.37-27.19,0,0,22.53,9.18,46.79,9.18,21.15,0,33.29-8.44,33.29-26.44,0-20.21-19.08-24.62-39.53-30.87-23.57-7.34-49.23-18-49.23-54.36s21.15-57.68,65.18-57.68"/><path class="cls-3" d="M853.33,374.11c10.93-1.5,24.18,5.22,29.14,13.81l-35.34,41.34c-8.28-1.48-14.9-5.22-18.87-11.57l25.08-43.58h-.01Z"/><path class="cls-3" d="M467.73,443.39c-11.44,0-16.98,2.57-16.98,2.57l-34.33,111.9c-7.61,25.36-11.09,42.48-11.09,42.48h-1.39s-4.65-10.55-8.87-23.82c-.01-.04-.03-.1-.04-.11-.04-.13-.12-.4-.59-.2h-.01c-1.31,.49-2.69,.78-4.1,.78-.22,0-.45,0-.67-.02-9.42-.54-18.72-2.19-27.71-4.78h0c-.87-.24-1.48,.27-1.1,1.36l.15,.44c.25,.71,.33,.96,.33,.96l9.18,26.33h-.02s9.6,29.39,18.17,49.46l-2.75,8.38c-10.4,34.54-18.37,38.9-33.96,38.9-7.99,0-15.61-1.5-15.61-1.5-.36,.37-2.78,6.6-2.78,14.69,0,7.35,2.42,13.22,2.42,13.59,0,0,7.63,3.67,19.07,3.67,37.45,0,49.58-23.15,62.06-63.55l66.9-218.96s-6.23-2.57-16.29-2.57"/><path class="cls-3" d="M292.02,523.25c-.08-.1-.15-.18-.25-.29-.77-.88-1.58-.34-1.48,.96h-.01c.33,4.95,.5,10.28,.5,16.07,0,56.57-15.94,72-41.24,72s-41.61-15.43-41.61-72,16.3-72.01,41.61-72.01c2.4,0,4.69,.17,6.91,.48h.01c1.35,.24,1.69-.47,1.24-1.12-2.77-3.86-5.21-6.72-7.34-9.31-2.53-2.94-5.18-5.77-7.96-8.39-.09-.08-.18-.16-.27-.24-.57-.54-1.17-1.03-1.75-1.55-1.53-1.32-3.27-2.73-5.27-4.3-.54-.41-1.07-.84-1.62-1.23-.81-.53-2.34-.97-3.95-.68-35.61,7.34-56.96,36.47-56.96,98.35,0,72.74,29.46,100.29,76.97,100.29,43.9,0,72.36-23.57,76.42-84.55-13.43-8.75-25.05-19.82-33.94-32.49"/><path class="cls-2" d="M289.47,340.84c-1.33-.45-2.7,.5-2.97,2.03-1.41,7.81-2.66,25.2,5.55,51.95,9.77,31.87,20.56,41.74,53.29,72.49,7.11,6.68,12.91,13.82,18.05,18.87,1.54,1.48,3.54,.26,3.93-1.98,3.94-22.62-.12-59.23-29.33-102.63-19.13-28.4-39.85-37.79-48.52-40.74"/><path class="cls-1" d="M449.15,386.47c.27-1.93-1.38-3.46-3.01-2.77-13.24,5.66-44.48,20.3-61.45,55.29-7.42,15.27-10.71,46.68-8.61,65.22,.2,1.69,1.62,2.8,3.04,2.21,9.42-3.96,29.02-14.13,40.7-33.75,19.82-33.25,27.01-70.24,29.33-86.2"/><path class="cls-4" d="M243.6,439.68c13.14,9.13,23.63,22.96,32.41,36.55,.88,1.33,1.73,2.67,2.56,4.03,.24,.38,.48,.77,.72,1.15,11.56,18.62,27.2,53.15,63.02,72.4,8.39,4.33,17.3,7.75,26.53,10.08,.87,.21,1.74,.42,2.62,.62,.47,.11,.95,.22,1.42,.33,3.69,.77,7.54,1.39,11.55,1.86,1.92,.21,3.84,.39,5.77,.5,1.79,.05,2.58-1.57,2.13-3.11-3.46-11.6-11.65-36.91-29.89-62.3-21.47-29.89-57.8-61.74-119.27-64.99h-.04c-.86,0-1.35,1.21-.68,1.82,.36,.33,.77,.7,1.15,1.06"/></svg>